<svg viewBox="0 0 12 11" fill="none" xmlns="http://www.w3.org/2000/svg">
<path d="M5.70769 9.13333L2.94103 10.8C2.8188 10.8778 2.69103 10.9111 2.55769 10.9C2.42436 10.8889 2.30769 10.8444 2.20769 10.7667C2.10769 10.6889 2.02991 10.5917 1.97436 10.475C1.9188 10.3583 1.90769 10.2278 1.94103 10.0833L2.67436 6.93333L0.224359 4.81667C0.113248 4.71667 0.0438034 4.60278 0.0160256 4.475C-0.0117521 4.34722 -0.0034188 4.22222 0.0410256 4.1C0.0854701 3.97778 0.152137 3.87778 0.241026 3.8C0.329915 3.72222 0.452137 3.67222 0.607692 3.65L3.84103 3.36667L5.09103 0.4C5.14658 0.266667 5.23269 0.166667 5.34936 0.1C5.46603 0.0333333 5.58547 0 5.70769 0C5.82992 0 5.94936 0.0333333 6.06603 0.1C6.18269 0.166667 6.2688 0.266667 6.32436 0.4L7.57436 3.36667L10.8077 3.65C10.9632 3.67222 11.0855 3.72222 11.1744 3.8C11.2632 3.87778 11.3299 3.97778 11.3744 4.1C11.4188 4.22222 11.4271 4.34722 11.3994 4.475C11.3716 4.60278 11.3021 4.71667 11.191 4.81667L8.74103 6.93333L9.47436 10.0833C9.50769 10.2278 9.49658 10.3583 9.44103 10.475C9.38547 10.5917 9.30769 10.6889 9.20769 10.7667C9.10769 10.8444 8.99103 10.8889 8.85769 10.9C8.72436 10.9111 8.59658 10.8778 8.47436 10.8L5.70769 9.13333Z" />
</svg>
