<svg width="341" height="134" viewBox="0 0 341 134" fill="none" xmlns="http://www.w3.org/2000/svg">
<mask id="path-1-outside-1_3013_5440" maskUnits="userSpaceOnUse" x="-0.539902" y="-0.539551" width="342" height="135" fill="black">
<rect fill="white" x="-0.539902" y="-0.539551" width="342" height="135"/>
<path d="M181.481 35.4367C184.628 35.4367 187.478 36.6777 189.755 38.9929L186.941 42.0676C185.294 40.4561 183.554 39.6597 181.481 39.6597C177.502 39.6597 174.522 42.901 174.522 47.2537C174.522 51.6064 177.576 54.8292 181.481 54.8292C183.591 54.8292 185.368 53.9957 187.2 52.125L190.069 55.1811C187.534 57.8298 184.739 59.0707 181.463 59.0707C174.799 59.0707 169.746 54.0142 169.746 47.2908C169.746 40.5673 174.799 35.4737 181.463 35.4737L181.481 35.4367Z"/>
<path d="M190.569 51.0137C190.569 46.3832 194.049 42.9751 198.732 42.9751C203.414 42.9751 206.894 46.3832 206.894 51.0137C206.894 55.6442 203.451 59.0522 198.732 59.0522C194.012 59.0522 190.569 55.6071 190.569 51.0137ZM202.544 51.0137C202.544 48.6614 200.934 46.9574 198.732 46.9574C196.529 46.9574 194.956 48.6614 194.956 51.0137C194.956 53.366 196.566 55.07 198.732 55.07C200.897 55.07 202.544 53.3289 202.544 51.0137Z"/>
<path d="M208.93 43.3085H212.817L213.391 45.5126C214.594 43.9012 216.334 42.9751 218.111 42.9751C221.757 42.9751 223.996 45.5497 223.996 49.6986V58.7003H219.536V50.3654C219.536 48.2909 218.499 47.0129 216.722 47.0129C215.445 47.0129 214.279 47.7538 213.372 49.1985V58.7188H208.93V43.3085Z"/>
<path d="M225.81 43.4752L228.716 43.3085L228.642 43.1418C228.235 42.0676 228.013 41.0674 228.013 40.0672C228.013 36.9184 230.364 34.7699 233.936 34.7699C235.639 34.7699 237.508 35.3996 239.063 36.511L237.193 39.6597C236.416 39.0855 235.528 38.7521 234.75 38.7521C233.418 38.7521 232.474 39.7153 232.474 41.0303C232.474 41.7712 232.714 42.5306 233.047 43.3085H237.823V47.1241H233.547V58.7188H229.105V47.1241H225.829V43.4752H225.81Z"/>
<path d="M254.425 50.9396C254.425 51.4397 254.388 51.9768 254.296 52.3102H242.783C243.246 54.3106 244.856 55.533 247.059 55.533C248.539 55.533 249.798 55.107 250.872 53.9587L253.389 56.5703C251.742 58.2187 249.576 59.0522 247.207 59.0522C242.228 59.0522 238.748 55.6071 238.748 51.0137C238.748 46.4202 242.191 42.9751 246.744 42.9751C251.297 42.9751 254.444 46.3832 254.444 50.9396H254.425ZM242.802 49.5319H250.39C249.983 47.6612 248.688 46.4202 246.577 46.4202C244.708 46.4202 243.264 47.6241 242.802 49.5319Z"/>
<path d="M261.459 45.4941C262.569 43.9568 264.106 42.9751 265.734 42.9751C266.345 42.9751 266.808 43.0492 267.271 43.2159L266.105 47.902C265.605 47.7723 265.161 47.6982 264.79 47.6982C263.476 47.6982 262.31 48.1613 261.44 49.3467V58.7188H256.998V43.3085H260.885L261.459 45.4941Z"/>
<path d="M283.651 50.9396C283.651 51.4397 283.614 51.9768 283.522 52.3102H272.009C272.472 54.3106 274.082 55.533 276.285 55.533C277.765 55.533 279.024 55.107 280.097 53.9587L282.615 56.5703C280.967 58.2187 278.802 59.0522 276.433 59.0522C271.454 59.0522 267.974 55.6071 267.974 51.0137C267.974 46.4202 271.417 42.9751 275.97 42.9751C280.523 42.9751 283.67 46.3832 283.67 50.9396H283.651ZM272.028 49.5319H279.616C279.209 47.6612 277.913 46.4202 275.803 46.4202C273.934 46.4202 272.49 47.6241 272.028 49.5319Z"/>
<path d="M286.224 43.3085H290.111L290.685 45.5126C291.888 43.9012 293.628 42.9751 295.404 42.9751C299.051 42.9751 301.29 45.5497 301.29 49.6986V58.7003H296.83V50.3654C296.83 48.2909 295.793 47.0129 294.016 47.0129C292.739 47.0129 291.573 47.7538 290.666 49.1985V58.7188H286.224V43.3085Z"/>
<path d="M314.543 53.5512L317.393 56.4036C315.69 58.2187 313.673 59.0522 311.23 59.0522C306.51 59.0522 303.03 55.6442 303.03 51.0137C303.03 46.3832 306.51 42.9751 311.23 42.9751C313.377 42.9751 315.45 43.8086 317.06 45.3459L314.21 48.2539C313.377 47.4575 312.359 47.0129 311.23 47.0129C309.083 47.0129 307.509 48.7169 307.509 50.9951C307.509 53.2733 309.083 54.9403 311.23 54.9403C312.507 54.9403 313.58 54.4773 314.543 53.5327V53.5512Z"/>
<path d="M333.422 50.9396C333.422 51.4397 333.385 51.9768 333.293 52.3102H321.78C322.243 54.3106 323.853 55.533 326.056 55.533C327.536 55.533 328.795 55.107 329.868 53.9587L332.386 56.5703C330.738 58.2187 328.573 59.0522 326.204 59.0522C321.225 59.0522 317.745 55.6071 317.745 51.0137C317.745 46.4202 321.188 42.9751 325.741 42.9751C330.294 42.9751 333.441 46.3832 333.441 50.9396H333.422ZM321.798 49.5319H329.387C328.98 47.6612 327.684 46.4202 325.574 46.4202C323.705 46.4202 322.261 47.6241 321.798 49.5319Z"/>
<path d="M23.1543 82.9641C23.1543 99.9487 35.0001 112.729 50.5292 112.729C59.0804 112.729 66.336 109.08 70.9077 102.69C73.4435 99.1152 70.8707 94.1514 66.4841 94.1514H53.8238C50.8439 94.1514 48.4192 91.725 48.4192 88.7429V84.3903C48.4192 81.4082 50.8439 78.9818 53.8238 78.9818H88.3063C91.2862 78.9818 93.7109 81.4082 93.7109 84.3903C93.7109 109.951 75.2759 129.306 50.5292 129.306C24.3389 129.306 4.4601 109.413 4.4601 82.9455C4.4601 56.4776 24.3389 36.4369 50.5292 36.4369C61.0239 36.4369 70.6486 39.9375 78.7926 46.5313C81.2173 48.4947 81.4949 52.0879 79.3849 54.3847L75.5535 58.5892C73.6656 60.6451 70.519 60.96 68.3165 59.2374C62.9858 55.0885 57.137 53.014 50.5292 53.014C34.8705 53.014 23.1543 65.7942 23.1543 82.9085V82.9641Z"/>
<path d="M97.0056 97.7261C97.0056 79.556 110.702 66.1091 129.119 66.1091C147.535 66.1091 161.232 79.5375 161.232 97.7261C161.232 115.915 147.665 129.343 129.119 129.343C110.573 129.343 97.0056 115.766 97.0056 97.7261ZM144.13 97.7261C144.13 88.5022 137.818 81.7787 129.119 81.7787C120.42 81.7787 114.238 88.5022 114.238 97.7261C114.238 106.95 120.549 113.674 129.119 113.674C137.689 113.674 144.13 106.82 144.13 97.7261Z"/>
<path d="M200.286 99.2078L186.516 114.859H208.671V124.138H172.338V116.23L191.346 94.5403C194.808 90.4284 196.344 87.4464 196.344 84.4643C196.344 80.4266 193.53 77.6853 189.495 77.6853C185.942 77.6853 182.092 79.8709 178.372 84.0569L171.69 77.4445C176.613 71.3878 182.962 68.0909 189.977 68.0909C199.972 68.0909 207.227 74.87 207.227 83.8902C207.227 88.7244 205.617 93.2438 200.305 99.2078H200.286Z"/>
<path d="M254.037 96.4666C254.037 113.488 245.578 124.935 232.918 124.935C220.258 124.935 211.799 113.488 211.799 96.4666C211.799 79.4449 220.258 68.0909 232.918 68.0909C245.578 68.0909 254.037 79.5375 254.037 96.4666ZM223.164 96.4666C223.164 107.672 226.958 114.766 232.918 114.766C238.878 114.766 242.672 107.746 242.672 96.4666C242.672 85.1867 238.878 78.241 232.918 78.241C226.958 78.241 223.164 85.2608 223.164 96.4666Z"/>
<path d="M285.928 99.2078L272.157 114.859H294.312V124.138H257.979V116.23L276.988 94.5403C280.449 90.4284 281.985 87.4464 281.985 84.4643C281.985 80.4266 279.172 77.6853 275.137 77.6853C271.583 77.6853 267.733 79.8709 264.013 84.0569L257.331 77.4445C262.255 71.3878 268.603 68.0909 275.618 68.0909C285.613 68.0909 292.869 74.87 292.869 83.8902C292.869 88.7244 291.258 93.2438 285.946 99.2078H285.928Z"/>
<path d="M296.237 105.653C296.237 99.5227 298.403 93.2438 305.103 83.7976L315.746 68.8874H327.351L313.821 88.0761C314.543 88.002 315.357 87.9094 316.153 87.9094C327.758 87.9094 336.291 95.8183 336.291 106.135C336.291 116.452 327.758 124.916 316.153 124.916C304.548 124.916 296.256 116.693 296.256 105.653H296.237ZM325.408 106.135C325.408 100.653 321.539 96.7074 316.135 96.7074C310.73 96.7074 306.788 100.653 306.788 106.135C306.788 111.618 310.73 115.563 316.135 115.563C321.539 115.563 325.408 111.525 325.408 106.135Z"/>
<path d="M147.646 59.3856C146.332 59.3856 145.055 58.6818 144.389 57.4223C143.426 55.6256 144.093 53.366 145.907 52.4028C149.201 50.6247 154.236 46.7721 154.624 44.105C154.661 43.8271 154.735 43.2715 153.791 42.3454C152.514 41.0859 147.869 41.8268 144.463 42.3454C139.632 43.1048 134.635 43.9012 131.044 41.4934C108.259 26.2313 103.539 23.064 69.9268 24.5087C65.6697 24.6939 62.8007 20.934 60.1354 17.2852C58.4511 14.9884 56.156 11.8767 54.6197 11.8767C54.5827 11.8767 54.5642 11.8767 54.5272 11.8767C51.1585 12.136 50.0295 20.9896 50.1961 25.4533C50.2701 27.4908 48.6783 29.2133 46.6423 29.2874C46.5868 29.2874 46.5498 29.2874 46.4942 29.2874C44.5138 29.2874 42.885 27.7316 42.7924 25.7312C42.7184 23.6567 42.3297 5.39405 53.9534 4.48647C59.5802 4.06047 63.1894 8.95027 66.0769 12.8769C67.1319 14.3031 68.8902 16.6925 69.7417 17.0814C104.409 15.5811 110.813 19.0077 135.153 35.3256C136.337 36.122 140.52 35.4552 143.297 35.0107C148.794 34.1402 155.013 33.1585 158.955 37.0296C161.954 39.9746 162.232 43.0492 161.935 45.1422C160.899 52.4028 151.311 57.8853 149.386 58.9226C148.831 59.2189 148.239 59.3671 147.646 59.3671V59.3856Z"/>
</mask>
<path d="M181.481 35.4367C184.628 35.4367 187.478 36.6777 189.755 38.9929L186.941 42.0676C185.294 40.4561 183.554 39.6597 181.481 39.6597C177.502 39.6597 174.522 42.901 174.522 47.2537C174.522 51.6064 177.576 54.8292 181.481 54.8292C183.591 54.8292 185.368 53.9957 187.2 52.125L190.069 55.1811C187.534 57.8298 184.739 59.0707 181.463 59.0707C174.799 59.0707 169.746 54.0142 169.746 47.2908C169.746 40.5673 174.799 35.4737 181.463 35.4737L181.481 35.4367Z" fill="#103972"/>
<path d="M190.569 51.0137C190.569 46.3832 194.049 42.9751 198.732 42.9751C203.414 42.9751 206.894 46.3832 206.894 51.0137C206.894 55.6442 203.451 59.0522 198.732 59.0522C194.012 59.0522 190.569 55.6071 190.569 51.0137ZM202.544 51.0137C202.544 48.6614 200.934 46.9574 198.732 46.9574C196.529 46.9574 194.956 48.6614 194.956 51.0137C194.956 53.366 196.566 55.07 198.732 55.07C200.897 55.07 202.544 53.3289 202.544 51.0137Z" fill="#103972"/>
<path d="M208.93 43.3085H212.817L213.391 45.5126C214.594 43.9012 216.334 42.9751 218.111 42.9751C221.757 42.9751 223.996 45.5497 223.996 49.6986V58.7003H219.536V50.3654C219.536 48.2909 218.499 47.0129 216.722 47.0129C215.445 47.0129 214.279 47.7538 213.372 49.1985V58.7188H208.93V43.3085Z" fill="#103972"/>
<path d="M225.81 43.4752L228.716 43.3085L228.642 43.1418C228.235 42.0676 228.013 41.0674 228.013 40.0672C228.013 36.9184 230.364 34.7699 233.936 34.7699C235.639 34.7699 237.508 35.3996 239.063 36.511L237.193 39.6597C236.416 39.0855 235.528 38.7521 234.75 38.7521C233.418 38.7521 232.474 39.7153 232.474 41.0303C232.474 41.7712 232.714 42.5306 233.047 43.3085H237.823V47.1241H233.547V58.7188H229.105V47.1241H225.829V43.4752H225.81Z" fill="#103972"/>
<path d="M254.425 50.9396C254.425 51.4397 254.388 51.9768 254.296 52.3102H242.783C243.246 54.3106 244.856 55.533 247.059 55.533C248.539 55.533 249.798 55.107 250.872 53.9587L253.389 56.5703C251.742 58.2187 249.576 59.0522 247.207 59.0522C242.228 59.0522 238.748 55.6071 238.748 51.0137C238.748 46.4202 242.191 42.9751 246.744 42.9751C251.297 42.9751 254.444 46.3832 254.444 50.9396H254.425ZM242.802 49.5319H250.39C249.983 47.6612 248.688 46.4202 246.577 46.4202C244.708 46.4202 243.264 47.6241 242.802 49.5319Z" fill="#103972"/>
<path d="M261.459 45.4941C262.569 43.9568 264.106 42.9751 265.734 42.9751C266.345 42.9751 266.808 43.0492 267.271 43.2159L266.105 47.902C265.605 47.7723 265.161 47.6982 264.79 47.6982C263.476 47.6982 262.31 48.1613 261.44 49.3467V58.7188H256.998V43.3085H260.885L261.459 45.4941Z" fill="#103972"/>
<path d="M283.651 50.9396C283.651 51.4397 283.614 51.9768 283.522 52.3102H272.009C272.472 54.3106 274.082 55.533 276.285 55.533C277.765 55.533 279.024 55.107 280.097 53.9587L282.615 56.5703C280.967 58.2187 278.802 59.0522 276.433 59.0522C271.454 59.0522 267.974 55.6071 267.974 51.0137C267.974 46.4202 271.417 42.9751 275.97 42.9751C280.523 42.9751 283.67 46.3832 283.67 50.9396H283.651ZM272.028 49.5319H279.616C279.209 47.6612 277.913 46.4202 275.803 46.4202C273.934 46.4202 272.49 47.6241 272.028 49.5319Z" fill="#103972"/>
<path d="M286.224 43.3085H290.111L290.685 45.5126C291.888 43.9012 293.628 42.9751 295.404 42.9751C299.051 42.9751 301.29 45.5497 301.29 49.6986V58.7003H296.83V50.3654C296.83 48.2909 295.793 47.0129 294.016 47.0129C292.739 47.0129 291.573 47.7538 290.666 49.1985V58.7188H286.224V43.3085Z" fill="#103972"/>
<path d="M314.543 53.5512L317.393 56.4036C315.69 58.2187 313.673 59.0522 311.23 59.0522C306.51 59.0522 303.03 55.6442 303.03 51.0137C303.03 46.3832 306.51 42.9751 311.23 42.9751C313.377 42.9751 315.45 43.8086 317.06 45.3459L314.21 48.2539C313.377 47.4575 312.359 47.0129 311.23 47.0129C309.083 47.0129 307.509 48.7169 307.509 50.9951C307.509 53.2733 309.083 54.9403 311.23 54.9403C312.507 54.9403 313.58 54.4773 314.543 53.5327V53.5512Z" fill="#103972"/>
<path d="M333.422 50.9396C333.422 51.4397 333.385 51.9768 333.293 52.3102H321.78C322.243 54.3106 323.853 55.533 326.056 55.533C327.536 55.533 328.795 55.107 329.868 53.9587L332.386 56.5703C330.738 58.2187 328.573 59.0522 326.204 59.0522C321.225 59.0522 317.745 55.6071 317.745 51.0137C317.745 46.4202 321.188 42.9751 325.741 42.9751C330.294 42.9751 333.441 46.3832 333.441 50.9396H333.422ZM321.798 49.5319H329.387C328.98 47.6612 327.684 46.4202 325.574 46.4202C323.705 46.4202 322.261 47.6241 321.798 49.5319Z" fill="#103972"/>
<path d="M23.1543 82.9641C23.1543 99.9487 35.0001 112.729 50.5292 112.729C59.0804 112.729 66.336 109.08 70.9077 102.69C73.4435 99.1152 70.8707 94.1514 66.4841 94.1514H53.8238C50.8439 94.1514 48.4192 91.725 48.4192 88.7429V84.3903C48.4192 81.4082 50.8439 78.9818 53.8238 78.9818H88.3063C91.2862 78.9818 93.7109 81.4082 93.7109 84.3903C93.7109 109.951 75.2759 129.306 50.5292 129.306C24.3389 129.306 4.4601 109.413 4.4601 82.9455C4.4601 56.4776 24.3389 36.4369 50.5292 36.4369C61.0239 36.4369 70.6486 39.9375 78.7926 46.5313C81.2173 48.4947 81.4949 52.0879 79.3849 54.3847L75.5535 58.5892C73.6656 60.6451 70.519 60.96 68.3165 59.2374C62.9858 55.0885 57.137 53.014 50.5292 53.014C34.8705 53.014 23.1543 65.7942 23.1543 82.9085V82.9641Z" fill="#103972"/>
<path d="M97.0056 97.7261C97.0056 79.556 110.702 66.1091 129.119 66.1091C147.535 66.1091 161.232 79.5375 161.232 97.7261C161.232 115.915 147.665 129.343 129.119 129.343C110.573 129.343 97.0056 115.766 97.0056 97.7261ZM144.13 97.7261C144.13 88.5022 137.818 81.7787 129.119 81.7787C120.42 81.7787 114.238 88.5022 114.238 97.7261C114.238 106.95 120.549 113.674 129.119 113.674C137.689 113.674 144.13 106.82 144.13 97.7261Z" fill="#103972"/>
<path d="M200.286 99.2078L186.516 114.859H208.671V124.138H172.338V116.23L191.346 94.5403C194.808 90.4284 196.344 87.4464 196.344 84.4643C196.344 80.4266 193.53 77.6853 189.495 77.6853C185.942 77.6853 182.092 79.8709 178.372 84.0569L171.69 77.4445C176.613 71.3878 182.962 68.0909 189.977 68.0909C199.972 68.0909 207.227 74.87 207.227 83.8902C207.227 88.7244 205.617 93.2438 200.305 99.2078H200.286Z" fill="#00C1E5"/>
<path d="M254.037 96.4666C254.037 113.488 245.578 124.935 232.918 124.935C220.258 124.935 211.799 113.488 211.799 96.4666C211.799 79.4449 220.258 68.0909 232.918 68.0909C245.578 68.0909 254.037 79.5375 254.037 96.4666ZM223.164 96.4666C223.164 107.672 226.958 114.766 232.918 114.766C238.878 114.766 242.672 107.746 242.672 96.4666C242.672 85.1867 238.878 78.241 232.918 78.241C226.958 78.241 223.164 85.2608 223.164 96.4666Z" fill="#00C1E5"/>
<path d="M285.928 99.2078L272.157 114.859H294.312V124.138H257.979V116.23L276.988 94.5403C280.449 90.4284 281.985 87.4464 281.985 84.4643C281.985 80.4266 279.172 77.6853 275.137 77.6853C271.583 77.6853 267.733 79.8709 264.013 84.0569L257.331 77.4445C262.255 71.3878 268.603 68.0909 275.618 68.0909C285.613 68.0909 292.869 74.87 292.869 83.8902C292.869 88.7244 291.258 93.2438 285.946 99.2078H285.928Z" fill="#00C1E5"/>
<path d="M296.237 105.653C296.237 99.5227 298.403 93.2438 305.103 83.7976L315.746 68.8874H327.351L313.821 88.0761C314.543 88.002 315.357 87.9094 316.153 87.9094C327.758 87.9094 336.291 95.8183 336.291 106.135C336.291 116.452 327.758 124.916 316.153 124.916C304.548 124.916 296.256 116.693 296.256 105.653H296.237ZM325.408 106.135C325.408 100.653 321.539 96.7074 316.135 96.7074C310.73 96.7074 306.788 100.653 306.788 106.135C306.788 111.618 310.73 115.563 316.135 115.563C321.539 115.563 325.408 111.525 325.408 106.135Z" fill="#00C1E5"/>
<path d="M147.646 59.3856C146.332 59.3856 145.055 58.6818 144.389 57.4223C143.426 55.6256 144.093 53.366 145.907 52.4028C149.201 50.6247 154.236 46.7721 154.624 44.105C154.661 43.8271 154.735 43.2715 153.791 42.3454C152.514 41.0859 147.869 41.8268 144.463 42.3454C139.632 43.1048 134.635 43.9012 131.044 41.4934C108.259 26.2313 103.539 23.064 69.9268 24.5087C65.6697 24.6939 62.8007 20.934 60.1354 17.2852C58.4511 14.9884 56.156 11.8767 54.6197 11.8767C54.5827 11.8767 54.5642 11.8767 54.5272 11.8767C51.1585 12.136 50.0295 20.9896 50.1961 25.4533C50.2701 27.4908 48.6783 29.2133 46.6423 29.2874C46.5868 29.2874 46.5498 29.2874 46.4942 29.2874C44.5138 29.2874 42.885 27.7316 42.7924 25.7312C42.7184 23.6567 42.3297 5.39405 53.9534 4.48647C59.5802 4.06047 63.1894 8.95027 66.0769 12.8769C67.1319 14.3031 68.8902 16.6925 69.7417 17.0814C104.409 15.5811 110.813 19.0077 135.153 35.3256C136.337 36.122 140.52 35.4552 143.297 35.0107C148.794 34.1402 155.013 33.1585 158.955 37.0296C161.954 39.9746 162.232 43.0492 161.935 45.1422C160.899 52.4028 151.311 57.8853 149.386 58.9226C148.831 59.2189 148.239 59.3671 147.646 59.3671V59.3856Z" fill="#103972"/>
<path d="M181.481 35.4367C184.628 35.4367 187.478 36.6777 189.755 38.9929L186.941 42.0676C185.294 40.4561 183.554 39.6597 181.481 39.6597C177.502 39.6597 174.522 42.901 174.522 47.2537C174.522 51.6064 177.576 54.8292 181.481 54.8292C183.591 54.8292 185.368 53.9957 187.2 52.125L190.069 55.1811C187.534 57.8298 184.739 59.0707 181.463 59.0707C174.799 59.0707 169.746 54.0142 169.746 47.2908C169.746 40.5673 174.799 35.4737 181.463 35.4737L181.481 35.4367Z" stroke="white" stroke-width="8.92019" stroke-linejoin="round" mask="url(#path-1-outside-1_3013_5440)"/>
<path d="M190.569 51.0137C190.569 46.3832 194.049 42.9751 198.732 42.9751C203.414 42.9751 206.894 46.3832 206.894 51.0137C206.894 55.6442 203.451 59.0522 198.732 59.0522C194.012 59.0522 190.569 55.6071 190.569 51.0137ZM202.544 51.0137C202.544 48.6614 200.934 46.9574 198.732 46.9574C196.529 46.9574 194.956 48.6614 194.956 51.0137C194.956 53.366 196.566 55.07 198.732 55.07C200.897 55.07 202.544 53.3289 202.544 51.0137Z" stroke="white" stroke-width="8.92019" stroke-linejoin="round" mask="url(#path-1-outside-1_3013_5440)"/>
<path d="M208.93 43.3085H212.817L213.391 45.5126C214.594 43.9012 216.334 42.9751 218.111 42.9751C221.757 42.9751 223.996 45.5497 223.996 49.6986V58.7003H219.536V50.3654C219.536 48.2909 218.499 47.0129 216.722 47.0129C215.445 47.0129 214.279 47.7538 213.372 49.1985V58.7188H208.93V43.3085Z" stroke="white" stroke-width="8.92019" stroke-linejoin="round" mask="url(#path-1-outside-1_3013_5440)"/>
<path d="M225.81 43.4752L228.716 43.3085L228.642 43.1418C228.235 42.0676 228.013 41.0674 228.013 40.0672C228.013 36.9184 230.364 34.7699 233.936 34.7699C235.639 34.7699 237.508 35.3996 239.063 36.511L237.193 39.6597C236.416 39.0855 235.528 38.7521 234.75 38.7521C233.418 38.7521 232.474 39.7153 232.474 41.0303C232.474 41.7712 232.714 42.5306 233.047 43.3085H237.823V47.1241H233.547V58.7188H229.105V47.1241H225.829V43.4752H225.81Z" stroke="white" stroke-width="8.92019" stroke-linejoin="round" mask="url(#path-1-outside-1_3013_5440)"/>
<path d="M254.425 50.9396C254.425 51.4397 254.388 51.9768 254.296 52.3102H242.783C243.246 54.3106 244.856 55.533 247.059 55.533C248.539 55.533 249.798 55.107 250.872 53.9587L253.389 56.5703C251.742 58.2187 249.576 59.0522 247.207 59.0522C242.228 59.0522 238.748 55.6071 238.748 51.0137C238.748 46.4202 242.191 42.9751 246.744 42.9751C251.297 42.9751 254.444 46.3832 254.444 50.9396H254.425ZM242.802 49.5319H250.39C249.983 47.6612 248.688 46.4202 246.577 46.4202C244.708 46.4202 243.264 47.6241 242.802 49.5319Z" stroke="white" stroke-width="8.92019" stroke-linejoin="round" mask="url(#path-1-outside-1_3013_5440)"/>
<path d="M261.459 45.4941C262.569 43.9568 264.106 42.9751 265.734 42.9751C266.345 42.9751 266.808 43.0492 267.271 43.2159L266.105 47.902C265.605 47.7723 265.161 47.6982 264.79 47.6982C263.476 47.6982 262.31 48.1613 261.44 49.3467V58.7188H256.998V43.3085H260.885L261.459 45.4941Z" stroke="white" stroke-width="8.92019" stroke-linejoin="round" mask="url(#path-1-outside-1_3013_5440)"/>
<path d="M283.651 50.9396C283.651 51.4397 283.614 51.9768 283.522 52.3102H272.009C272.472 54.3106 274.082 55.533 276.285 55.533C277.765 55.533 279.024 55.107 280.097 53.9587L282.615 56.5703C280.967 58.2187 278.802 59.0522 276.433 59.0522C271.454 59.0522 267.974 55.6071 267.974 51.0137C267.974 46.4202 271.417 42.9751 275.97 42.9751C280.523 42.9751 283.67 46.3832 283.67 50.9396H283.651ZM272.028 49.5319H279.616C279.209 47.6612 277.913 46.4202 275.803 46.4202C273.934 46.4202 272.49 47.6241 272.028 49.5319Z" stroke="white" stroke-width="8.92019" stroke-linejoin="round" mask="url(#path-1-outside-1_3013_5440)"/>
<path d="M286.224 43.3085H290.111L290.685 45.5126C291.888 43.9012 293.628 42.9751 295.404 42.9751C299.051 42.9751 301.29 45.5497 301.29 49.6986V58.7003H296.83V50.3654C296.83 48.2909 295.793 47.0129 294.016 47.0129C292.739 47.0129 291.573 47.7538 290.666 49.1985V58.7188H286.224V43.3085Z" stroke="white" stroke-width="8.92019" stroke-linejoin="round" mask="url(#path-1-outside-1_3013_5440)"/>
<path d="M314.543 53.5512L317.393 56.4036C315.69 58.2187 313.673 59.0522 311.23 59.0522C306.51 59.0522 303.03 55.6442 303.03 51.0137C303.03 46.3832 306.51 42.9751 311.23 42.9751C313.377 42.9751 315.45 43.8086 317.06 45.3459L314.21 48.2539C313.377 47.4575 312.359 47.0129 311.23 47.0129C309.083 47.0129 307.509 48.7169 307.509 50.9951C307.509 53.2733 309.083 54.9403 311.23 54.9403C312.507 54.9403 313.58 54.4773 314.543 53.5327V53.5512Z" stroke="white" stroke-width="8.92019" stroke-linejoin="round" mask="url(#path-1-outside-1_3013_5440)"/>
<path d="M333.422 50.9396C333.422 51.4397 333.385 51.9768 333.293 52.3102H321.78C322.243 54.3106 323.853 55.533 326.056 55.533C327.536 55.533 328.795 55.107 329.868 53.9587L332.386 56.5703C330.738 58.2187 328.573 59.0522 326.204 59.0522C321.225 59.0522 317.745 55.6071 317.745 51.0137C317.745 46.4202 321.188 42.9751 325.741 42.9751C330.294 42.9751 333.441 46.3832 333.441 50.9396H333.422ZM321.798 49.5319H329.387C328.98 47.6612 327.684 46.4202 325.574 46.4202C323.705 46.4202 322.261 47.6241 321.798 49.5319Z" stroke="white" stroke-width="8.92019" stroke-linejoin="round" mask="url(#path-1-outside-1_3013_5440)"/>
<path d="M23.1543 82.9641C23.1543 99.9487 35.0001 112.729 50.5292 112.729C59.0804 112.729 66.336 109.08 70.9077 102.69C73.4435 99.1152 70.8707 94.1514 66.4841 94.1514H53.8238C50.8439 94.1514 48.4192 91.725 48.4192 88.7429V84.3903C48.4192 81.4082 50.8439 78.9818 53.8238 78.9818H88.3063C91.2862 78.9818 93.7109 81.4082 93.7109 84.3903C93.7109 109.951 75.2759 129.306 50.5292 129.306C24.3389 129.306 4.4601 109.413 4.4601 82.9455C4.4601 56.4776 24.3389 36.4369 50.5292 36.4369C61.0239 36.4369 70.6486 39.9375 78.7926 46.5313C81.2173 48.4947 81.4949 52.0879 79.3849 54.3847L75.5535 58.5892C73.6656 60.6451 70.519 60.96 68.3165 59.2374C62.9858 55.0885 57.137 53.014 50.5292 53.014C34.8705 53.014 23.1543 65.7942 23.1543 82.9085V82.9641Z" stroke="white" stroke-width="8.92019" stroke-linejoin="round" mask="url(#path-1-outside-1_3013_5440)"/>
<path d="M97.0056 97.7261C97.0056 79.556 110.702 66.1091 129.119 66.1091C147.535 66.1091 161.232 79.5375 161.232 97.7261C161.232 115.915 147.665 129.343 129.119 129.343C110.573 129.343 97.0056 115.766 97.0056 97.7261ZM144.13 97.7261C144.13 88.5022 137.818 81.7787 129.119 81.7787C120.42 81.7787 114.238 88.5022 114.238 97.7261C114.238 106.95 120.549 113.674 129.119 113.674C137.689 113.674 144.13 106.82 144.13 97.7261Z" stroke="white" stroke-width="8.92019" stroke-linejoin="round" mask="url(#path-1-outside-1_3013_5440)"/>
<path d="M200.286 99.2078L186.516 114.859H208.671V124.138H172.338V116.23L191.346 94.5403C194.808 90.4284 196.344 87.4464 196.344 84.4643C196.344 80.4266 193.53 77.6853 189.495 77.6853C185.942 77.6853 182.092 79.8709 178.372 84.0569L171.69 77.4445C176.613 71.3878 182.962 68.0909 189.977 68.0909C199.972 68.0909 207.227 74.87 207.227 83.8902C207.227 88.7244 205.617 93.2438 200.305 99.2078H200.286Z" stroke="white" stroke-width="8.92019" stroke-linejoin="round" mask="url(#path-1-outside-1_3013_5440)"/>
<path d="M254.037 96.4666C254.037 113.488 245.578 124.935 232.918 124.935C220.258 124.935 211.799 113.488 211.799 96.4666C211.799 79.4449 220.258 68.0909 232.918 68.0909C245.578 68.0909 254.037 79.5375 254.037 96.4666ZM223.164 96.4666C223.164 107.672 226.958 114.766 232.918 114.766C238.878 114.766 242.672 107.746 242.672 96.4666C242.672 85.1867 238.878 78.241 232.918 78.241C226.958 78.241 223.164 85.2608 223.164 96.4666Z" stroke="white" stroke-width="8.92019" stroke-linejoin="round" mask="url(#path-1-outside-1_3013_5440)"/>
<path d="M285.928 99.2078L272.157 114.859H294.312V124.138H257.979V116.23L276.988 94.5403C280.449 90.4284 281.985 87.4464 281.985 84.4643C281.985 80.4266 279.172 77.6853 275.137 77.6853C271.583 77.6853 267.733 79.8709 264.013 84.0569L257.331 77.4445C262.255 71.3878 268.603 68.0909 275.618 68.0909C285.613 68.0909 292.869 74.87 292.869 83.8902C292.869 88.7244 291.258 93.2438 285.946 99.2078H285.928Z" stroke="white" stroke-width="8.92019" stroke-linejoin="round" mask="url(#path-1-outside-1_3013_5440)"/>
<path d="M296.237 105.653C296.237 99.5227 298.403 93.2438 305.103 83.7976L315.746 68.8874H327.351L313.821 88.0761C314.543 88.002 315.357 87.9094 316.153 87.9094C327.758 87.9094 336.291 95.8183 336.291 106.135C336.291 116.452 327.758 124.916 316.153 124.916C304.548 124.916 296.256 116.693 296.256 105.653H296.237ZM325.408 106.135C325.408 100.653 321.539 96.7074 316.135 96.7074C310.73 96.7074 306.788 100.653 306.788 106.135C306.788 111.618 310.73 115.563 316.135 115.563C321.539 115.563 325.408 111.525 325.408 106.135Z" stroke="white" stroke-width="8.92019" stroke-linejoin="round" mask="url(#path-1-outside-1_3013_5440)"/>
<path d="M147.646 59.3856C146.332 59.3856 145.055 58.6818 144.389 57.4223C143.426 55.6256 144.093 53.366 145.907 52.4028C149.201 50.6247 154.236 46.7721 154.624 44.105C154.661 43.8271 154.735 43.2715 153.791 42.3454C152.514 41.0859 147.869 41.8268 144.463 42.3454C139.632 43.1048 134.635 43.9012 131.044 41.4934C108.259 26.2313 103.539 23.064 69.9268 24.5087C65.6697 24.6939 62.8007 20.934 60.1354 17.2852C58.4511 14.9884 56.156 11.8767 54.6197 11.8767C54.5827 11.8767 54.5642 11.8767 54.5272 11.8767C51.1585 12.136 50.0295 20.9896 50.1961 25.4533C50.2701 27.4908 48.6783 29.2133 46.6423 29.2874C46.5868 29.2874 46.5498 29.2874 46.4942 29.2874C44.5138 29.2874 42.885 27.7316 42.7924 25.7312C42.7184 23.6567 42.3297 5.39405 53.9534 4.48647C59.5802 4.06047 63.1894 8.95027 66.0769 12.8769C67.1319 14.3031 68.8902 16.6925 69.7417 17.0814C104.409 15.5811 110.813 19.0077 135.153 35.3256C136.337 36.122 140.52 35.4552 143.297 35.0107C148.794 34.1402 155.013 33.1585 158.955 37.0296C161.954 39.9746 162.232 43.0492 161.935 45.1422C160.899 52.4028 151.311 57.8853 149.386 58.9226C148.831 59.2189 148.239 59.3671 147.646 59.3671V59.3856Z" stroke="white" stroke-width="8.92019" stroke-linejoin="round" mask="url(#path-1-outside-1_3013_5440)"/>
</svg>
