<svg width="208" height="244" viewBox="0 0 208 244" fill="none" xmlns="http://www.w3.org/2000/svg">
<path d="M14.6288 131.691C18.5587 131.691 22.1125 133.235 24.9517 136.134L21.4355 139.975C19.386 137.96 17.2048 136.963 14.6288 136.963C9.646 136.963 5.92298 141.029 5.92298 146.469C5.92298 151.91 9.72121 155.92 14.6288 155.92C17.2613 155.92 19.48 154.866 21.774 152.531L25.3654 156.334C22.1877 159.647 18.7091 161.191 14.6288 161.191C6.31785 161.191 0 154.866 0 146.451C0 138.036 6.31785 131.673 14.6288 131.673V131.691Z" fill="#103972"/>
<path d="M25.9671 151.157C25.9671 145.378 30.3106 141.104 36.1584 141.104C42.0061 141.104 46.3685 145.378 46.3685 151.157C46.3685 156.936 42.0625 161.21 36.1584 161.21C30.2542 161.21 25.9671 156.899 25.9671 151.157ZM40.9344 151.157C40.9344 148.22 38.9224 146.093 36.1772 146.093C33.4319 146.093 31.4576 148.22 31.4576 151.157C31.4576 154.094 33.4695 156.221 36.1772 156.221C38.8848 156.221 40.9344 154.037 40.9344 151.157Z" fill="#103972"/>
<path d="M48.9257 141.518H53.7769L54.4914 144.286C55.9957 142.271 58.1768 141.104 60.3956 141.104C64.9459 141.104 67.7476 144.323 67.7476 149.519V160.777H62.1819V150.347C62.1819 147.75 60.8845 146.168 58.6657 146.168C57.0674 146.168 55.6196 147.091 54.4914 148.898V160.777H48.9257V141.518Z" fill="#103972"/>
<path d="M69.9852 141.744L73.6142 141.537L73.539 141.33C73.0313 139.994 72.7492 138.732 72.7492 137.49C72.7492 133.555 75.6825 130.882 80.1577 130.882C82.2824 130.882 84.6328 131.673 86.5507 133.066L84.2191 137C83.2602 136.285 82.132 135.871 81.173 135.871C79.4995 135.871 78.3337 137.076 78.3337 138.713C78.3337 139.636 78.6158 140.596 79.0483 141.556H85.0277V146.319H79.6688V160.796H74.1031V146.319H70.004V141.763L69.9852 141.744Z" fill="#103972"/>
<path d="M105.749 151.063C105.749 151.684 105.711 152.362 105.579 152.776H91.1951C91.778 155.28 93.7899 156.786 96.554 156.786C98.3967 156.786 99.9761 156.24 101.311 154.828L104.451 158.085C102.402 160.137 99.6941 161.191 96.7232 161.191C90.4994 161.191 86.1558 156.88 86.1558 151.138C86.1558 145.396 90.4618 141.085 96.1403 141.085C101.819 141.085 105.749 145.359 105.749 151.044V151.063ZM91.2327 149.312H100.728C100.221 146.978 98.6035 145.415 95.9711 145.415C93.6207 145.415 91.8344 146.921 91.2515 149.312H91.2327Z" fill="#103972"/>
<path d="M114.53 144.248C115.902 142.328 117.839 141.104 119.889 141.104C120.641 141.104 121.224 141.179 121.807 141.405L120.34 147.26C119.719 147.091 119.174 147.015 118.704 147.015C117.068 147.015 115.602 147.599 114.53 149.067V160.796H108.964V141.537H113.815L114.53 144.267V144.248Z" fill="#103972"/>
<path d="M142.246 151.063C142.246 151.684 142.208 152.362 142.076 152.776H127.692C128.275 155.28 130.287 156.786 133.051 156.786C134.894 156.786 136.473 156.24 137.808 154.828L140.948 158.085C138.899 160.137 136.191 161.191 133.22 161.191C126.996 161.191 122.653 156.88 122.653 151.138C122.653 145.396 126.959 141.085 132.637 141.085C138.316 141.085 142.246 145.359 142.246 151.044V151.063ZM127.73 149.312H137.225C136.717 146.978 135.1 145.415 132.468 145.415C130.118 145.415 128.331 146.921 127.748 149.312H127.73Z" fill="#103972"/>
<path d="M145.461 141.518H150.312L151.027 144.286C152.531 142.271 154.712 141.104 156.931 141.104C161.481 141.104 164.283 144.323 164.283 149.519V160.777H158.717V150.347C158.717 147.75 157.42 146.168 155.201 146.168C153.603 146.168 152.155 147.091 151.027 148.898V160.777H145.461V141.518Z" fill="#103972"/>
<path d="M180.829 154.338L184.383 157.896C182.259 160.156 179.739 161.21 176.693 161.21C170.789 161.21 166.445 156.936 166.445 151.157C166.445 145.378 170.789 141.104 176.693 141.104C179.363 141.104 181.958 142.158 183.97 144.079L180.416 147.712C179.363 146.714 178.122 146.168 176.693 146.168C174.023 146.168 172.048 148.296 172.048 151.157C172.048 154.018 174.004 156.089 176.693 156.089C178.272 156.089 179.626 155.506 180.829 154.338Z" fill="#103972"/>
<path d="M204.409 151.063C204.409 151.684 204.371 152.362 204.239 152.776H189.855C190.438 155.28 192.45 156.786 195.214 156.786C197.057 156.786 198.636 156.24 199.971 154.828L203.111 158.085C201.062 160.137 198.354 161.191 195.383 161.191C189.159 161.191 184.816 156.88 184.816 151.138C184.816 145.396 189.122 141.085 194.8 141.085C200.479 141.085 204.409 145.359 204.409 151.044V151.063ZM189.911 149.312H199.407C198.899 146.978 197.282 145.415 194.65 145.415C192.299 145.415 190.513 146.921 189.93 149.312H189.911Z" fill="#103972"/>
<path d="M38.4148 79.7898C38.4148 97.0527 50.4487 110.042 66.2245 110.042C74.9116 110.042 82.2824 106.334 86.9268 99.8389C89.5028 96.2055 86.8892 91.1603 82.4328 91.1603H69.5715C66.5442 91.1603 64.081 88.6942 64.081 85.6633V81.2393C64.081 78.2085 66.5442 75.7423 69.5715 75.7423H104.602C107.629 75.7423 110.092 78.2085 110.092 81.2393C110.092 107.218 91.3643 126.891 66.2245 126.891C39.6181 126.891 19.4236 106.672 19.4236 79.771C19.4236 52.8694 39.6181 32.5003 66.2245 32.5003C76.8859 32.5003 86.6635 36.0583 94.9369 42.7602C97.4001 44.7557 97.6822 48.4078 95.5386 50.7421L91.6464 55.0155C89.7284 57.1051 86.5319 57.4252 84.2943 55.6744C78.879 51.4575 72.9373 49.3491 66.2245 49.3491C50.3171 49.3491 38.4148 62.3386 38.4148 79.7333V79.7898Z" fill="#103972"/>
<path d="M113.439 94.7937C113.439 76.3259 127.353 62.6586 146.063 62.6586C164.772 62.6586 178.686 76.3071 178.686 94.7937C178.686 113.28 164.903 126.929 146.063 126.929C127.222 126.929 113.439 113.13 113.439 94.7937ZM161.312 94.7937C161.312 85.4186 154.9 78.585 146.063 78.585C137.225 78.585 130.945 85.4186 130.945 94.7937C130.945 104.169 137.357 111.002 146.063 111.002C154.768 111.002 161.312 104.037 161.312 94.7937Z" fill="#103972"/>
<path d="M38.1139 211.38L20.9091 230.92H48.5872V242.517H3.19653V232.633L26.9449 205.525C31.2696 200.385 33.1875 196.658 33.1875 192.931C33.1875 187.885 29.6713 184.459 24.6321 184.459C20.1945 184.459 15.3809 187.189 10.7366 192.422L2.38799 184.158C8.51781 176.609 16.4715 172.467 25.2338 172.467C37.719 172.467 46.7821 180.939 46.7821 192.215C46.7821 198.258 44.7702 203.906 38.1327 211.361L38.1139 211.38Z" fill="#00C1E5"/>
<path d="M105.241 207.953C105.241 229.207 94.6737 243.533 78.8602 243.533C63.0468 243.533 52.4983 229.226 52.4983 207.953C52.4983 186.681 63.0656 172.486 78.8602 172.486C94.6548 172.486 105.241 186.794 105.241 207.953ZM66.6946 207.953C66.6946 221.959 71.433 230.826 78.879 230.826C86.3251 230.826 91.0635 222.054 91.0635 207.953C91.0635 193.853 86.3251 185.175 78.879 185.175C71.433 185.175 66.6946 193.947 66.6946 207.953Z" fill="#00C1E5"/>
<path d="M145.104 211.38L127.899 230.92H155.577V242.517H110.186V232.633L133.935 205.525C138.259 200.385 140.177 196.658 140.177 192.931C140.177 187.885 136.661 184.459 131.622 184.459C127.184 184.459 122.371 187.189 117.726 192.422L109.378 184.158C115.507 176.609 123.461 172.467 132.223 172.467C144.709 172.467 153.772 180.939 153.772 192.215C153.772 198.258 151.76 203.906 145.122 211.361L145.104 211.38Z" fill="#00C1E5"/>
<path d="M157.965 219.437C157.965 211.775 160.673 203.925 169.04 192.121L182.334 173.484H196.831L179.927 197.468C180.829 197.373 181.845 197.26 182.841 197.26C197.339 197.26 208 207.144 208 220.039C208 232.935 197.339 243.515 182.841 243.515C168.344 243.515 157.984 233.236 157.984 219.437H157.965ZM194.405 220.039C194.405 213.187 189.573 208.255 182.823 208.255C176.072 208.255 171.146 213.187 171.146 220.039C171.146 226.892 176.072 231.824 182.823 231.824C189.573 231.824 194.405 226.779 194.405 220.039Z" fill="#00C1E5"/>
<path d="M164.884 55.825C163.549 55.825 162.252 55.1096 161.575 53.8295C160.597 52.0035 161.274 49.7068 163.117 48.7278C166.464 46.9206 171.578 43.0049 171.973 40.294C172.011 40.0117 172.086 39.4469 171.127 38.5056C169.83 37.2255 165.11 37.9785 161.65 38.5056C156.743 39.2775 151.666 40.087 148.018 37.6397C124.871 22.1275 120.077 18.9084 85.9302 20.3767C81.6055 20.565 78.691 16.7434 75.9834 13.0348C74.2723 10.7005 71.9407 7.5378 70.38 7.5378C70.3424 7.5378 70.3236 7.5378 70.286 7.5378C66.8639 7.80135 65.7169 16.7999 65.8861 21.3368C65.9613 23.4076 64.3442 25.1584 62.2759 25.2337C62.2195 25.2337 62.1819 25.2337 62.1255 25.2337C60.1135 25.2337 58.4589 23.6524 58.3649 21.6192C58.2896 19.5108 57.8948 0.948896 69.7031 0.0264502C75.4193 -0.406535 79.0859 4.56338 82.0192 8.55437C83.0909 10.0039 84.8772 12.4324 85.7422 12.8277C120.96 11.3029 127.466 14.7856 152.192 31.3708C153.396 32.1803 157.645 31.5026 160.466 31.0508C166.05 30.166 172.368 29.1682 176.373 33.1027C179.419 36.096 179.701 39.221 179.4 41.3483C178.347 48.7278 168.607 54.3002 166.652 55.3544C166.088 55.6556 165.486 55.8062 164.884 55.8062V55.825Z" fill="#103972"/>
</svg>
